<svg width="121" height="40" fill="none" xmlns="http://www.w3.org/2000/svg"><g clip-path="url(#clip0)"><path fill-rule="evenodd" clip-rule="evenodd" d="M114.5 1H6.5a5 5 0 00-5 5v28a5 5 0 005 5h108a5 5 0 005-5V6a5 5 0 00-5-5zM6.5 0a6 6 0 00-6 6v28a6 6 0 006 6h108a6 6 0 006-6V6a6 6 0 00-6-6H6.5z" fill="#131516" fill-opacity=".87"/><g clip-path="url(#clip1)"><path d="M24.932 15.263H14.068a.454.454 0 00-.314.136.433.433 0 00-.125.313v9.36a.435.435 0 00.124.313.455.455 0 00.315.136h1.936v3.154c0 .732.578 1.325 1.29 1.325.713 0 1.29-.593 1.29-1.325V25.52h1.804v3.154c0 .732.578 1.325 1.29 1.325.713 0 1.29-.593 1.29-1.325V25.52h1.964a.453.453 0 00.315-.136.433.433 0 00.124-.313v-9.36a.435.435 0 00-.125-.313.454.454 0 00-.314-.136zM11.79 15.26c-.712 0-1.29.593-1.29 1.325v5.382c0 .732.578 1.325 1.29 1.325.713 0 1.29-.593 1.29-1.325v-5.382c0-.732-.578-1.325-1.29-1.325zm15.42 0c-.713 0-1.29.593-1.29 1.325v5.382c0 .732.577 1.325 1.29 1.325.712 0 1.29-.593 1.29-1.325v-5.382c0-.732-.578-1.325-1.29-1.325zm-13.055-.654H24.82a.447.447 0 00.427-.543 6.043 6.043 0 00-2.875-4.022l.912-1.69a.238.238 0 00-.177-.35.23.23 0 00-.17.05.221.221 0 00-.057.07l-.918 1.702a5.734 5.734 0 00-2.475-.558 5.74 5.74 0 00-2.475.558l-.918-1.7a.22.22 0 00-.136-.113.23.23 0 00-.288.164.238.238 0 00.02.178l.912 1.689a6.042 6.042 0 00-2.876 4.021.448.448 0 00.429.544zm8.514-2.517a.501.501 0 01-.495.508.518.518 0 01-.356-.153.497.497 0 01-.14-.355c0-.282.221-.51.495-.51.275 0 .496.228.496.51zm-5.868-.51c.274 0 .496.228.496.51a.502.502 0 01-.496.508.514.514 0 01-.356-.154.491.491 0 01-.14-.354c0-.282.222-.51.496-.51z" fill="#131516" fill-opacity=".87"/></g><path d="M37.5 15V8.602h1.89c.565 0 1.066.126 1.503.377.439.252.779.61 1.02 1.073.24.463.36.993.36 1.59v.321c0 .607-.122 1.14-.365 1.6a2.53 2.53 0 01-1.033 1.063c-.445.25-.956.374-1.534.374H37.5zm1.112-5.502v4.614h.725c.583 0 1.03-.181 1.34-.545.314-.366.473-.89.48-1.573v-.356c0-.694-.152-1.224-.453-1.59-.302-.367-.74-.55-1.314-.55h-.778zm4.825 3.081c0-.466.092-.885.277-1.257.184-.375.443-.662.777-.862a2.18 2.18 0 011.152-.303c.641 0 1.161.207 1.56.62.401.413.618.96.65 1.643l.005.25c0 .47-.091.889-.273 1.258a1.98 1.98 0 01-.773.857 2.198 2.198 0 01-1.16.303c-.671 0-1.209-.223-1.613-.668-.402-.448-.602-1.044-.602-1.789v-.052zm1.068.092c0 .49.1.873.303 1.151.202.276.483.413.843.413s.64-.14.84-.421c.202-.282.303-.693.303-1.235 0-.48-.104-.862-.312-1.143a.984.984 0 00-.84-.422.979.979 0 00-.83.418c-.205.275-.307.688-.307 1.239zm8.793.857l.755-3.283h1.042L53.799 15h-.88L51.9 11.735 50.898 15h-.879l-1.3-4.755h1.041l.77 3.248.975-3.248h.804l.989 3.283zm3.862-3.283l.03.55c.352-.425.814-.638 1.385-.638.99 0 1.494.567 1.512 1.7V15h-1.068v-3.08c0-.302-.066-.525-.198-.668-.129-.147-.341-.22-.637-.22-.43 0-.752.195-.962.584V15h-1.068v-4.755h1.006zM62.675 15h-1.068V8.25h1.068V15zm1.327-2.421c0-.466.092-.885.276-1.257.185-.375.444-.662.778-.862a2.18 2.18 0 011.152-.303c.641 0 1.161.207 1.56.62.401.413.618.96.65 1.643l.005.25c0 .47-.091.889-.273 1.258a1.98 1.98 0 01-.773.857 2.198 2.198 0 01-1.16.303c-.671 0-1.209-.223-1.613-.668-.402-.448-.602-1.044-.602-1.789v-.052zm1.068.092c0 .49.1.873.303 1.151.202.276.483.413.843.413s.64-.14.84-.421c.202-.282.303-.693.303-1.235 0-.48-.104-.862-.312-1.143a.984.984 0 00-.84-.422.979.979 0 00-.83.418c-.205.275-.307.688-.307 1.239zM72.527 15a1.646 1.646 0 01-.123-.444c-.34.355-.756.532-1.248.532-.478 0-.868-.136-1.17-.409a1.308 1.308 0 01-.452-1.01c0-.507.188-.896.563-1.165.378-.273.916-.409 1.617-.409h.654v-.312c0-.246-.068-.442-.206-.589-.138-.15-.347-.224-.629-.224-.243 0-.442.062-.597.185a.558.558 0 00-.233.461h-1.068c0-.26.087-.504.26-.73.172-.228.407-.406.703-.535.298-.13.63-.194.997-.194.557 0 1 .14 1.332.422.33.278.5.671.51 1.178V13.9c0 .428.06.77.18 1.024V15h-1.09zm-1.174-.769c.211 0 .41-.051.594-.154.187-.102.328-.24.421-.413v-.896h-.575c-.396 0-.693.068-.892.206a.67.67 0 00-.3.585c0 .205.068.369.203.492.138.12.32.18.55.18zm3.362-1.644c0-.732.17-1.32.51-1.762.34-.445.795-.668 1.366-.668.504 0 .911.176 1.222.528V8.25h1.068V15h-.967l-.053-.492c-.319.387-.745.58-1.279.58-.556 0-1.007-.224-1.353-.672-.343-.449-.514-1.058-.514-1.829zm1.068.093c0 .483.092.861.277 1.133.187.27.452.405.795.405.436 0 .756-.195.958-.585v-2.03c-.196-.38-.513-.571-.95-.571a.91.91 0 00-.8.413c-.187.272-.28.684-.28 1.235zm7.839 1.195c.2 0 .353.057.461.171a.58.58 0 01.163.422.574.574 0 01-.163.418c-.108.108-.262.162-.461.162a.621.621 0 01-.453-.162.557.557 0 01-.167-.418c0-.17.054-.31.163-.422.108-.114.26-.171.457-.171zM88.67 15a1.646 1.646 0 01-.122-.444c-.34.355-.756.532-1.248.532-.478 0-.867-.136-1.17-.409a1.308 1.308 0 01-.452-1.01c0-.507.188-.896.563-1.165.378-.273.917-.409 1.617-.409h.655v-.312c0-.246-.07-.442-.207-.589-.138-.15-.347-.224-.628-.224-.243 0-.443.062-.598.185a.558.558 0 00-.233.461H85.78c0-.26.087-.504.26-.73.172-.228.407-.406.703-.535.298-.13.63-.194.997-.194.557 0 1 .14 1.332.422.33.278.5.671.51 1.178V13.9c0 .428.06.77.18 1.024V15h-1.09zm-1.172-.769a1.2 1.2 0 00.593-.154c.187-.102.328-.24.422-.413v-.896h-.576c-.396 0-.693.068-.892.206a.67.67 0 00-.299.585c0 .205.067.369.202.492.138.12.32.18.55.18zm7.725-1.561c0 .736-.167 1.324-.501 1.763-.334.437-.782.655-1.345.655-.521 0-.939-.171-1.252-.514v2.254h-1.068v-6.583h.984l.044.484c.314-.381.74-.572 1.279-.572.58 0 1.034.217 1.362.65.331.431.497 1.03.497 1.798v.066zm-1.064-.091c0-.475-.095-.852-.285-1.13-.188-.278-.457-.417-.809-.417-.436 0-.75.18-.94.54v2.11c.193.369.51.553.949.553.34 0 .605-.136.795-.408.194-.276.29-.692.29-1.248zm3.876.381l-.475.489V15h-1.068V8.25h1.068v3.894l.334-.418 1.314-1.48h1.283l-1.766 1.981L100.68 15h-1.235l-1.41-2.04zM44.344 28.186h-4.681L38.683 31H36.5l4.565-12.086h1.885L47.523 31h-2.191l-.988-2.814zm-4.092-1.693h3.503l-1.752-5.014-1.751 5.014zm10.608-4.474l.058 1.037c.664-.802 1.535-1.204 2.614-1.204 1.871 0 2.823 1.071 2.856 3.213V31h-2.017v-5.819c0-.57-.125-.99-.374-1.262-.243-.276-.644-.415-1.203-.415-.814 0-1.42.368-1.818 1.104V31h-2.017v-8.981h1.9zm7.893 4.424c0-1.384.321-2.493.963-3.329.642-.84 1.502-1.262 2.581-1.262.952 0 1.722.333 2.308.997V18.25h2.017V31h-1.826l-.1-.93c-.603.73-1.408 1.096-2.415 1.096-1.051 0-1.904-.423-2.557-1.27-.647-.847-.97-1.998-.97-3.453zm2.017.174c0 .913.174 1.627.523 2.142.354.509.855.764 1.502.764.825 0 1.428-.369 1.81-1.104v-3.835c-.37-.72-.968-1.08-1.793-1.08-.653 0-1.156.26-1.51.78-.355.515-.532 1.293-.532 2.333zm13.339-2.756a4.998 4.998 0 00-.822-.066c-.924 0-1.547.354-1.868 1.062V31h-2.017v-8.981h1.926l.05 1.004c.487-.78 1.162-1.17 2.025-1.17.288 0 .526.038.714.116l-.008 1.892zm1.277 2.565c0-.88.175-1.671.523-2.374.35-.708.839-1.25 1.47-1.627.63-.381 1.355-.573 2.174-.573 1.212 0 2.195.39 2.947 1.17.758.781 1.168 1.816 1.229 3.105l.008.474c0 .885-.171 1.676-.515 2.374a3.739 3.739 0 01-1.46 1.618c-.631.382-1.362.573-2.192.573-1.267 0-2.283-.42-3.046-1.262-.758-.846-1.138-1.973-1.138-3.378v-.1zm2.018.175c0 .924.19 1.649.572 2.174.382.52.913.78 1.594.78.68 0 1.21-.265 1.586-.796.381-.532.572-1.309.572-2.333 0-.907-.196-1.627-.59-2.158-.386-.531-.915-.797-1.585-.797-.658 0-1.181.263-1.568.789-.388.52-.581 1.3-.581 2.34zM88.269 31h-2.017v-8.981h2.017V31zm-2.142-11.314c0-.31.097-.567.29-.772.2-.205.482-.307.847-.307s.648.102.847.307c.2.205.299.462.299.772 0 .304-.1.559-.3.764-.198.199-.48.299-.846.299-.365 0-.647-.1-.846-.3a1.068 1.068 0 01-.29-.763zm4.648 6.757c0-1.384.32-2.493.963-3.329.642-.84 1.502-1.262 2.581-1.262.952 0 1.721.333 2.308.997V18.25h2.017V31h-1.826l-.1-.93c-.603.73-1.408 1.096-2.415 1.096-1.052 0-1.904-.423-2.557-1.27-.647-.847-.971-1.998-.971-3.453zm2.017.174c0 .913.174 1.627.523 2.142.354.509.855.764 1.502.764.825 0 1.428-.369 1.81-1.104v-3.835c-.37-.72-.968-1.08-1.793-1.08-.653 0-1.157.26-1.51.78-.355.515-.532 1.293-.532 2.333z" fill="#131516" fill-opacity=".87"/></g><defs><clipPath id="clip0"><path fill="#fff" transform="translate(.5)" d="M0 0h120v40H0z"/></clipPath><clipPath id="clip1"><path fill="#fff" transform="translate(10.5 8)" d="M0 0h18v22H0z"/></clipPath></defs></svg>