<svg width="121" height="40" fill="none" xmlns="http://www.w3.org/2000/svg"><path fill-rule="evenodd" clip-rule="evenodd" d="M114.5 1H6.5a5 5 0 00-5 5v28a5 5 0 005 5h108a5 5 0 005-5V6a5 5 0 00-5-5zM6.5 0a6 6 0 00-6 6v28a6 6 0 006 6h108a6 6 0 006-6V6a6 6 0 00-6-6H6.5z" fill="#131516" fill-opacity=".87"/><g clip-path="url(#clip0)" fill="#131516" fill-opacity=".87"><path d="M25.534 19.7c.011-.844.236-1.67.655-2.404a5.012 5.012 0 011.74-1.791 5.136 5.136 0 00-1.769-1.567 5.17 5.17 0 00-2.287-.613c-1.706-.178-3.36 1.015-4.23 1.015-.885 0-2.224-.997-3.666-.968-.932.03-1.84.3-2.637.783a5.383 5.383 0 00-1.907 1.973c-1.965 3.383-.5 8.355 1.383 11.089.942 1.339 2.042 2.835 3.482 2.782 1.41-.058 1.936-.894 3.637-.894 1.686 0 2.18.894 3.649.86 1.512-.024 2.465-1.345 3.373-2.697a11.05 11.05 0 001.543-3.124 4.853 4.853 0 01-2.156-1.778 4.813 4.813 0 01-.81-2.666zm-2.775-8.173A4.904 4.904 0 0023.89 8a5.046 5.046 0 00-3.259 1.677 4.678 4.678 0 00-1.162 3.396 4.185 4.185 0 003.289-1.546z"/></g><path d="M38.432 8.731a2.654 2.654 0 012.112.818 2.638 2.638 0 01.704 2.147c0 1.906-1.033 3.002-2.816 3.002h-2.161V8.731h2.161zM37.2 13.854h1.128a1.887 1.887 0 001.5-.604 1.872 1.872 0 00.474-1.542 1.877 1.877 0 00-1.16-1.998 1.89 1.89 0 00-.814-.135H37.2v4.28zm5.098-1.408a2.128 2.128 0 011.264-2.154 2.145 2.145 0 012.895 1.277c.094.282.128.58.1.877a2.128 2.128 0 01-1.263 2.157 2.144 2.144 0 01-2.898-1.28 2.127 2.127 0 01-.098-.877zm3.342 0c0-.976-.44-1.547-1.211-1.547-.775 0-1.21.57-1.21 1.547 0 .984.435 1.55 1.21 1.55.771 0 1.211-.57 1.211-1.55zm6.578 2.252h-.924l-.934-3.316h-.07l-.93 3.316h-.915L47.2 10.195h.904l.809 3.436h.067l.928-3.436h.855l.928 3.436h.07l.806-3.436h.89l-1.239 4.503zm2.287-4.503h.858v.715h.066a1.349 1.349 0 011.348-.802 1.474 1.474 0 011.512 1.026c.066.21.083.431.05.649v2.915h-.89v-2.692c0-.724-.316-1.084-.975-1.084a1.04 1.04 0 00-1.03.703 1.03 1.03 0 00-.048.438v2.635h-.891v-4.503zm5.255-1.757h.89v6.26h-.89v-6.26zm2.13 4.006a2.128 2.128 0 011.264-2.154 2.146 2.146 0 012.448.516 2.132 2.132 0 01.547 1.638 2.128 2.128 0 01-1.263 2.157 2.144 2.144 0 01-2.898-1.28 2.13 2.13 0 01-.099-.877zm3.342 0c0-.976-.44-1.547-1.212-1.547-.774 0-1.21.57-1.21 1.547 0 .984.436 1.55 1.21 1.55.772 0 1.212-.57 1.212-1.55zm1.855.982c0-.81.606-1.278 1.68-1.345l1.223-.07v-.388c0-.476-.315-.745-.924-.745-.498 0-.843.182-.942.5h-.862c.09-.773.82-1.269 1.845-1.269 1.132 0 1.77.562 1.77 1.514v3.076h-.858v-.633h-.07a1.519 1.519 0 01-1.356.707 1.367 1.367 0 01-1.386-.796 1.356 1.356 0 01-.12-.551zm2.903-.385v-.377l-1.103.07c-.621.042-.903.253-.903.65 0 .405.352.641.837.641a1.068 1.068 0 001.057-.576 1.06 1.06 0 00.112-.408zm2.058-.596c0-1.423.734-2.324 1.875-2.324a1.492 1.492 0 011.385.79h.066V8.438h.891v6.26h-.854v-.711h-.07a1.565 1.565 0 01-1.418.785c-1.149 0-1.875-.9-1.875-2.327zm.92 0c0 .955.452 1.53 1.207 1.53.752 0 1.216-.583 1.216-1.526 0-.939-.47-1.53-1.216-1.53-.75 0-1.206.579-1.206 1.526zm6.985.001a2.128 2.128 0 011.263-2.154 2.144 2.144 0 012.896 1.277c.094.282.128.58.1.877a2.13 2.13 0 01-1.264 2.157 2.144 2.144 0 01-2.897-1.28 2.127 2.127 0 01-.099-.877zm3.342 0c0-.976-.44-1.547-1.212-1.547-.774 0-1.21.57-1.21 1.547 0 .984.436 1.55 1.21 1.55.772 0 1.212-.57 1.212-1.55zm2.112-2.251h.858v.715h.067a1.35 1.35 0 011.347-.802 1.474 1.474 0 011.513 1.026c.065.21.082.431.05.649v2.915h-.891v-2.692c0-.724-.315-1.084-.974-1.084a1.039 1.039 0 00-1.03.703 1.03 1.03 0 00-.049.438v2.635h-.89v-4.503zm8.871-1.121v1.142h.978v.748h-.978v2.316c0 .472.194.678.638.678.114 0 .227-.007.34-.02v.74c-.16.028-.322.043-.485.045-.991 0-1.386-.348-1.386-1.216v-2.543h-.717v-.748h.717V9.074h.892zm2.195-.636h.883v2.481h.071a1.386 1.386 0 011.377-.807 1.49 1.49 0 011.499 1.034c.066.209.085.429.056.645v2.907h-.892V12.01c0-.719-.336-1.083-.966-1.083a1.056 1.056 0 00-1.137 1.141v2.63h-.89v-6.26zm9.082 5.044a1.835 1.835 0 01-1.956 1.303 2.057 2.057 0 01-1.583-.681 2.05 2.05 0 01-.503-1.644 2.077 2.077 0 012.082-2.353c1.256 0 2.014.857 2.014 2.27v.31h-3.188v.05a1.19 1.19 0 001.202 1.29 1.088 1.088 0 001.075-.545h.857zm-3.134-1.452h2.28a1.072 1.072 0 00-.296-.828 1.089 1.089 0 00-.815-.338 1.161 1.161 0 00-.831.337 1.15 1.15 0 00-.338.83zM42.92 27.14h-4.746l-1.14 3.356h-2.01l4.495-12.418h2.09l4.495 12.418H44.06l-1.14-3.356zm-4.255-1.55h3.763l-1.855-5.446h-.052l-1.855 5.447zm17.149.38c0 2.813-1.51 4.62-3.789 4.62a3.084 3.084 0 01-2.856-1.584h-.044v4.485h-1.863V21.442h1.804v1.506h.034a3.216 3.216 0 012.89-1.6c2.305 0 3.824 1.816 3.824 4.622zm-1.916 0c0-1.833-.95-3.039-2.399-3.039-1.424 0-2.382 1.23-2.382 3.038 0 1.825.958 3.046 2.382 3.046 1.45 0 2.4-1.196 2.4-3.046zm11.909 0c0 2.813-1.51 4.62-3.79 4.62a3.084 3.084 0 01-2.856-1.584h-.043v4.485h-1.864V21.442h1.804v1.506h.035a3.216 3.216 0 012.89-1.6c2.305 0 3.824 1.816 3.824 4.622zm-1.916 0c0-1.833-.95-3.039-2.4-3.039-1.423 0-2.38 1.23-2.38 3.038 0 1.825.957 3.046 2.38 3.046 1.45 0 2.4-1.196 2.4-3.046zm8.519 1.066c.139 1.232 1.338 2.04 2.978 2.04 1.57 0 2.7-.808 2.7-1.919 0-.964-.68-1.54-2.295-1.936l-1.614-.388c-2.286-.55-3.348-1.617-3.348-3.348 0-2.142 1.873-3.614 4.53-3.614 2.633 0 4.437 1.472 4.497 3.614h-1.881c-.113-1.239-1.14-1.987-2.641-1.987-1.501 0-2.529.757-2.529 1.858 0 .878.656 1.395 2.261 1.79l1.373.336c2.555.603 3.615 1.626 3.615 3.443 0 2.323-1.855 3.778-4.806 3.778-2.762 0-4.627-1.42-4.747-3.667h1.908zM84.08 19.3v2.143h1.727v1.472H84.08v4.991c0 .776.346 1.137 1.105 1.137.205-.004.41-.018.613-.043v1.463a5.14 5.14 0 01-1.035.086c-1.838 0-2.555-.689-2.555-2.444v-5.19h-1.32v-1.472h1.32v-2.142h1.872zm2.726 6.67c0-2.848 1.682-4.638 4.306-4.638 2.632 0 4.307 1.79 4.307 4.639 0 2.856-1.666 4.638-4.307 4.638-2.64 0-4.306-1.782-4.306-4.638zm6.714 0c0-1.953-.898-3.107-2.408-3.107-1.51 0-2.408 1.162-2.408 3.108 0 1.962.898 3.106 2.408 3.106 1.51 0 2.408-1.144 2.408-3.106zm3.435-4.528h1.778v1.541h.043a2.16 2.16 0 012.183-1.636c.215 0 .429.023.639.07v1.738a2.61 2.61 0 00-.837-.112 1.882 1.882 0 00-1.86 1.286 1.866 1.866 0 00-.082.797v5.37h-1.864v-9.054zm13.235 6.396c-.25 1.643-1.855 2.771-3.909 2.771-2.641 0-4.281-1.764-4.281-4.595 0-2.84 1.649-4.682 4.203-4.682 2.512 0 4.091 1.72 4.091 4.466v.637h-6.412v.112a2.353 2.353 0 001.462 2.391c.311.127.645.186.98.173a2.057 2.057 0 002.097-1.273h1.769zm-6.299-2.702h4.539a2.184 2.184 0 00-.61-1.634 2.194 2.194 0 00-1.617-.664 2.298 2.298 0 00-2.312 2.298z" fill="#131516" fill-opacity=".87"/><defs><clipPath id="clip0"><path fill="#fff" transform="translate(10.5 8)" d="M0 0h18v22H0z"/></clipPath></defs></svg>