<svg width="67" height="32" fill="none" xmlns="http://www.w3.org/2000/svg"><g clip-path="url(#clip0)" fill-rule="evenodd" clip-rule="evenodd" fill="#B9B8B9"><path d="M39.867 13.831c-1.732 0-2.71.996-2.956 2.991l-.196 2.042a1.377 1.377 0 01-1.227 1.439.26.26 0 00-.296.293v.818c0 .177.098.279.296.279 1.65 0 2.565-.965 2.746-2.91l.196-1.798a2.29 2.29 0 01.36-1.307 1.45 1.45 0 011.16-.375h1.306v6.03a.244.244 0 00.279.277h.947a.25.25 0 00.276-.278v-7.207c0-.195-.098-.296-.276-.296l-2.615.002zM29.182 18.34v-4.215a.26.26 0 00-.296-.296h-.98a.256.256 0 00-.278.296v4.706c0 1.93.915 2.91 2.747 2.91a3.93 3.93 0 002.531-.98l.163.687a.32.32 0 00.246.162h.687c.194 0 .292-.081.292-.245v-7.24c0-.195-.114-.296-.326-.296h-.93a.26.26 0 00-.296.296v5.067a2.682 2.682 0 01-2.126 1.026c-.964 0-1.437-.638-1.437-1.88l.003.003zm-2.697-.242c0-2.403-1.307-3.611-3.937-3.611h-1.961v-2.368h4.542c.196 0 .278-.114.295-.327v-.867c-.015-.214-.098-.327-.295-.327h-5.85c-.196 0-.296.113-.296.327v7.419c0 2.207 1.047 3.315 3.121 3.315h.28c2.728 0 4.1-1.192 4.1-3.562h.001zm-3.888-2.142c1.503 0 2.255.718 2.255 2.142 0 1.388-.752 2.075-2.255 2.091h-.49c-1.014-.016-1.52-.572-1.52-1.684v-2.548l2.01-.002zm42.859.996h-3.545v-2.827a.26.26 0 00-.296-.296h-.962c-.18 0-.26.098-.245.296v7.207c-.016.18.064.278.245.278h.964c.197 0 .296-.097.296-.278v-2.991h3.545v2.991c0 .18.118.278.313.278h.93c.196 0 .296-.097.296-.278v-7.207a.26.26 0 00-.296-.296h-.93a.272.272 0 00-.313.296v2.827h-.002zm-7.14-3.121h-.947c-.215 0-.329.099-.329.296v5.067a2.654 2.654 0 01-2.124 1.03c-.947 0-1.439-.639-1.439-1.88v-4.217c0-.195-.098-.296-.276-.296h-.947c-.214 0-.328.099-.328.296v4.707c0 1.93.914 2.909 2.746 2.909a3.67 3.67 0 002.55-.978l.147.686a.313.313 0 00.261.162h.686c.177 0 .279-.081.279-.245v-7.243a.254.254 0 00-.28-.296v.002zm.244-2.906c0-.214-.098-.328-.291-.328h-6.015a.297.297 0 00-.328.328v.865a.296.296 0 00.328.328h6.014c.194 0 .292-.115.292-.328v-.865zm-10.015 4.38c.175.295.255.637.227.98v.177l-1.716.082c-1.928.13-2.891.982-2.891 2.582 0 1.733.982 2.615 2.943 2.615a3.65 3.65 0 001.992-.572l.132.279c.07.086.168.143.277.162h.592c.146 0 .227-.08.227-.245v-5.082c0-1.814-.995-2.73-3.023-2.73a6.064 6.064 0 00-2.32.41.43.43 0 00-.182.277v.867c.015.094.062.18.132.244.082.015.164.026.246.033.68-.252 1.4-.373 2.124-.359.433-.04.868.057 1.243.279h-.003zm-1.437 5c-.883 0-1.31-.393-1.31-1.177-.015-.77.393-1.177 1.227-1.243l1.717-.163.032 2.092a3.346 3.346 0 01-1.664.49l-.002.001zM2.95 10.806a69.32 69.32 0 0111.58 0 7.736 7.736 0 00-11.58 0zm11.656 10.175a78.802 78.802 0 01-11.734 0 7.736 7.736 0 0011.734 0zM1.255 13.97a389.1 389.1 0 0114.97 0 7.814 7.814 0 01.06 3.682c-5.09.148-10.11.11-15.093 0A7.8 7.8 0 011 15.935c0-.663.085-1.324.254-1.966v.001z"/></g><defs><clipPath id="clip0"><path fill="#fff" transform="translate(.507)" d="M0 0h66v32H0z"/></clipPath></defs></svg>