<svg width="31" height="32" fill="none" xmlns="http://www.w3.org/2000/svg"><g clip-path="url(#clip0)"><g clip-path="url(#clip1)"><path d="M5.957 27.504V25.97c0-.588-.357-.972-.968-.972-.305 0-.636.102-.865.435-.179-.281-.433-.435-.815-.435a.821.821 0 00-.713.358v-.307H2.06v2.455h.535v-1.355c0-.435.229-.64.585-.64.357 0 .535.23.535.64v1.355h.535v-1.355c0-.435.254-.64.585-.64.357 0 .535.23.535.64v1.355h.586zm7.918-2.455h-.866v-.741h-.535v.741h-.483v.486h.483v1.125c0 .562.23.895.84.895.23 0 .484-.077.663-.18l-.153-.46a.835.835 0 01-.458.129c-.255 0-.357-.154-.357-.41v-1.099h.866v-.486zm4.532-.05a.717.717 0 00-.637.357v-.307h-.535v2.455h.535v-1.38c0-.41.178-.64.51-.64.101 0 .229.025.33.051l.153-.511c-.102-.026-.255-.026-.356-.026zm-6.85.255c-.254-.18-.61-.256-.992-.256-.611 0-1.018.307-1.018.793 0 .409.305.639.84.716l.254.025c.28.051.433.128.433.256 0 .179-.204.307-.56.307-.356 0-.636-.128-.815-.256l-.254.409c.28.204.662.307 1.043.307.713 0 1.12-.333 1.12-.793 0-.434-.33-.665-.84-.741l-.254-.026c-.23-.025-.407-.076-.407-.23 0-.179.178-.281.458-.281.305 0 .611.128.764.204l.229-.434zm14.208-.256a.717.717 0 00-.637.358v-.307h-.535v2.455h.535v-1.38c0-.41.178-.64.51-.64.101 0 .228.025.33.051l.153-.511c-.102-.026-.255-.026-.356-.026zm-6.824 1.278c0 .742.51 1.279 1.299 1.279.356 0 .61-.077.865-.281l-.254-.435c-.204.153-.407.23-.637.23-.432 0-.738-.307-.738-.793 0-.46.306-.767.738-.792.23 0 .433.077.637.23l.254-.435c-.254-.204-.509-.28-.865-.28-.79 0-1.299.536-1.299 1.277zm4.94 0V25.05h-.535v.307c-.178-.23-.433-.358-.764-.358-.687 0-1.222.537-1.222 1.278 0 .742.535 1.279 1.222 1.279.357 0 .611-.128.764-.358v.307h.535v-1.228zm-1.96 0c0-.434.28-.792.738-.792.432 0 .738.332.738.792 0 .435-.306.793-.738.793-.459-.025-.739-.358-.739-.793zm-6.391-1.278c-.713 0-1.222.511-1.222 1.278 0 .768.509 1.279 1.247 1.279.357 0 .713-.102.993-.333l-.254-.383a1.214 1.214 0 01-.713.256c-.331 0-.662-.154-.739-.588h1.808v-.205c.025-.793-.433-1.304-1.12-1.304zm0 .46c.33 0 .56.205.61.588h-1.272c.05-.332.28-.588.662-.588zm13.264.819v-2.2h-.534v1.28a.92.92 0 00-.764-.359c-.688 0-1.222.537-1.222 1.278 0 .742.534 1.279 1.222 1.279.356 0 .611-.128.764-.358v.307h.534v-1.228zm-1.96 0c0-.435.28-.793.738-.793.433 0 .739.332.739.792 0 .435-.306.793-.739.793-.458-.025-.738-.358-.738-.793zm-17.873 0v-1.228h-.535v.307c-.178-.23-.433-.358-.764-.358-.687 0-1.222.537-1.222 1.278 0 .742.535 1.279 1.222 1.279.357 0 .612-.128.764-.358v.307h.535v-1.228zm-1.986 0c0-.435.28-.793.738-.793.433 0 .739.332.739.792 0 .435-.306.793-.739.793-.458-.025-.738-.358-.738-.793z" fill="#AEADAE"/><path d="M19.4 6.412h-8.02v14.47h8.02V6.412z" fill="#707070" fill-opacity=".8"/><path d="M11.89 13.648a9.242 9.242 0 013.487-7.235 9.086 9.086 0 00-5.652-1.969C4.658 4.444.559 8.56.559 13.648c0 5.087 4.1 9.203 9.166 9.203a9.085 9.085 0 005.652-1.968 9.204 9.204 0 01-3.488-7.235zm18.33 0c0 5.087-4.099 9.203-9.165 9.203-2.14 0-4.1-.741-5.653-1.968a9.165 9.165 0 003.489-7.235 9.242 9.242 0 00-3.489-7.235 9.086 9.086 0 015.653-1.969c5.066 0 9.165 4.142 9.165 9.204z" fill="#AEADAE"/></g></g><defs><clipPath id="clip0"><path fill="#fff" transform="translate(.56)" d="M0 0h29.661v32H0z"/></clipPath><clipPath id="clip1"><path fill="#fff" transform="translate(.56 4.444)" d="M0 0h29.661v23.111H0z"/></clipPath></defs></svg>