<svg width="42" height="32" fill="none" xmlns="http://www.w3.org/2000/svg"><g clip-path="url(#clip0)"><path d="M.502 13.426v2.224l5.99-.66v-2.408l-5.99.844zm1.911 2.36v7.621h2.193v-7.846l-2.193.224zm4.888-3.317v10.938h2.31V12.143l-2.31.326zm2.74-.386v2.516l3.337-.368v-2.618l-3.336.47zm0 4.389v2.562l2.191-.12v-2.631l-2.19.189zm0 4.409v2.526h3.337V20.78l-3.336.1zm11.966-10.487v13.013h3.03V9.967l-3.03.427zm3.595-.506v2.993l4.415-.486V9.266l-4.415.622zm0 5.244v3.05l2.894-.16v-3.138l-2.894.248zm0 5.278v2.997h4.415v-3.13l-4.415.133zm-11.34-8.922v11.92h2.631v-12.29l-2.632.37zm3.123 9.17v2.75h3.82v-2.865l-3.82.116zM39.913 9.12c-.957-.906-2.36-1.278-3.896-1.057v3.32c.622-.034 1.126.197 1.35.662.355.734-.011 1.835-.874 2.855-1.331 1.574-4.872 4.795-4.872 4.795l5.083-.167c3.105-3.04 4.22-4.884 4.42-7.187a3.941 3.941 0 00-1.21-3.221zm1.39 14.288v-3.474l-10.308.312 10.309 3.162zm-10.308-3.163v3.163h10.309l-10.31-3.163zm4.43-12.107c-2.995.639-4.466 2.846-4.296 6.447l3.193-.283c-.146-2.035.476-2.518 1.104-2.783l-.002-3.381z" fill="#AEADAE"/></g><defs><clipPath id="clip0"><path fill="#fff" transform="translate(.502)" d="M0 0h40.802v32H0z"/></clipPath></defs></svg>