<svg width="39" height="32" fill="none" xmlns="http://www.w3.org/2000/svg"><g clip-path="url(#clip0)"><g clip-path="url(#clip1)"><path d="M14.706 10.008L9.678 22.433H6.384l-2.492-9.94c-.133-.598-.267-.828-.712-1.059-.756-.414-2.002-.828-3.07-1.058l.089-.368h5.25c.668 0 1.291.46 1.425 1.289l1.29 7.179 3.25-8.468h3.292zm12.861 8.376c0-3.268-4.405-3.452-4.36-4.925 0-.46.4-.92 1.334-1.058.445-.046 1.691-.092 3.07.552l.535-2.623c-.757-.276-1.691-.552-2.893-.552-3.07 0-5.251 1.703-5.251 4.096 0 1.794 1.558 2.807 2.715 3.359 1.201.598 1.602 1.012 1.602 1.565 0 .828-.98 1.196-1.87 1.196-1.557.046-2.447-.414-3.204-.782l-.578 2.715c.712.368 2.047.644 3.471.644 3.293.046 5.43-1.61 5.43-4.188zm8.1 4.05h2.892l-2.492-12.426h-2.67c-.578 0-1.112.368-1.335.92l-4.673 11.505h3.249l.667-1.84h4.006l.356 1.84zm-3.427-4.419l1.646-4.648.935 4.648H32.24zm-13.084-8.007l-2.58 12.425H13.46l2.581-12.425h3.115z" fill="#AEADAE"/></g></g><defs><clipPath id="clip0"><path fill="#fff" transform="translate(.11)" d="M0 0h38.45v32H0z"/></clipPath><clipPath id="clip1"><path fill="#fff" transform="translate(.11 9.778)" d="M0 0h38.45v12.839H0z"/></clipPath></defs></svg>